Project Synapse {
  database_type: 'Sql Server'
  Host: 'asd'
  Note: '''
    # Azure Synapse Database for D365
    ### Host: `asatst1-ondemand.sql.azuresynapse.net`
    ### Editor: [https://github.dev/aquzif/AWG-database-docs](https://github.dev/aquzif/AWG-database-docs)
  '''
}

Table InventTrans {
    RecId int [note: "Identyfikator rekordu"]
    ItemId string [note: "Kod Materiału"]
    DatePhysical date [note:"Data fizycznej transakcji"]
    DateFinancial date [note: "Data finansowa"]
    InventTransOrigin int [note: "Odnośnik do tabeli z informacjami"]
    StatusReceipt ITStatusReceipt [note: "Status przychodu"]
    StatusIssue ITStatusIssue [note: "Status rozchodu"]
    note: "Tabela z transakcjami magazynowymi"
}

Table ReqItemTable {
    RecId int [note: "Identyfikator rekordu"]
    ItemId string [note: "Kod Materiału"]
    InventDimId string
    MinInventOnhand decimal [note: "Ilość minimalna"]
    ReqPoType ReqPoType [note: "Typ zapotrzebowania"] 
    ReqPoTypeActive bit [note: "Zmień typ zamówienia planowanego"]
    ReqGroupId string [note: "Grupa zapotrzebowania"]
    VendId string [note: "Kod Dostawcy"]
    ItemConFieldsActive bit [note: "Użyj określonych ustawień"]
    InventLocationIdReqMain string [note: "Magazyn główny"]

    note: "Tabela z przepływami magazynowymi / Zapotrzebowaniem na towary"
}

Table InventTransOrigin {
    RecId int [note: "Identyfikator rekordu"]
    ReferenceCategory ITORefCat [note: "Kategoria odwołania"]
    ReferenceId string [note: "Wartość (numer) odwołania"]
    note: "Tabela z informacjami o transakcji magazynowej?"
}

Table InventItemPurchSetup {
    ItemId string [note: "Kod materialu"]
    multipleqty decimal [note: "Mnożnik, ilość przez którą musi się mnożyć zamówienie (laga, karton, paleta itp)"]
    lowestqty decimal [note: "najmniejsza sztuka materiału (w Naszym przypadku np. długość pojedyńczej lagi)"]
    leadtime int [note: "cykl materiału"]
    //ItemId string [note: "Kod materiału"]
    //LowestQty decimal [note: "Mnożnik"]
    //LeadTime decimal [note: "Cykl materiału"]
    //note: "Ustawienia zakupowe produktów"
    note: "Ustawienia zakupowe produktów"
}

Table SalesTable {
    SalesId string [default: "N012345/23/000001",note: "Numer zamówienia sprzedaży"]
    AngGlazingQty int [note: "Ilość szklen na nagłówku"]
    AngQuotationId string [default: "1234567890", note: "Numer oferty z PREF"]
    WorkerSalesResponsible int [note: "ID Osoby odpowiedzialnej za zamówienie"]
    CustAccount string [default: "N012345", note: "Numer klienta"]
    CustomerRef string [note: "Numer zewnętrzny klienta"]
    SalesName string [ note: "Nazwa klienta"]
    SalesStatus SalesStatus [note: "Stan zamówienia"]
    SalesType SalesType [note: "Typ zamówienia"]
    AngSalesOrderStatus AngSalesOrderStatus [note: "Status zamówienia"]
    TaxGroup string [note: "Kod grupy podatkowej"]
    DeliveryPostalAddress String 
    DefaultDimension int [note: "Id domyślnych wymiarów księgowych"]
    AngRelatedOrdersId string [note: "numer kompletu (zamówienień powiązanych ze sobą)"]
    note: "Tabela z nagłówkami zamówienia"
}

Table SalesLine {
    SalesId string [note: "Numer zamówienia sprzedaży"]
    LineNum int [note: "Numer wiersza"]
    SalesQty int [note: "Ilość na zamówieniu sprzedaży"]
    CurrencyCode string [note: "3 - znakowy kod waluty"]
    LineAmount decimal [note: "Cena netto na zamówieniu sprzedaży w walucie"]
    InventTransID string [note: "Identyfikator transportu"]
    inventDimId string
    InventRefId string
    "(WIDOK) SalesGrossPrice" decimal [note: "Cena brutto na zamówieniu sprzedaży w walucie (WIP)"]
    "(PBI) Szklenia Per Okno" int [note: "Ilość szkleń dla pojedyńczego okna w wierszu"]
    "(PBI) Szklenia Per Wariant" int [note: "Ilość szkleń dla całego wiersza "]
    "(PBI) IsWindow" bit [note: "Czy wiersz jest oknem"]
    "(WIDOK) WindowsOnMWG" int [note: "Ilość okien zdanych na MWG"]
    note: "Tabela z pozycjami zamówienia"
}

Table InventDim {
    inventDimId string
    configId string 
    note: "Wymiary magazynowe"
}

Table EcoResConfiguration {
    Name string [note: "Nazwa konfiguracji np. N10024/23/0000901-"]
    AngProductCategoryId string [note: "Kategoria produktu"]
    AngGlassesQuantity int [note: "Ilość szklen danej konfiguracji"]
    AngConfigurationWeight decimal [note: "Waga konfiguracji"]
    note: "Tabela z konfiguracjami wierszy zamówień"
}

Table DirPartyTable {
    RecId string [note: "ID Osoby"]
    Name string [note: "Nazwa osoby"]
    LanguageId string [note: "Kod języka"]
    PrimaryContactEmail int [note: "Identyfikator głównego adresu email"]
    note: "Globalna książka adresowa"
}

Table DirPartyLocation {
    RecId string [note: "Identyfikator rekordu"]
    Party string [note: "Identyfikator książki adresowej"]
    Location string
}

Table LogisticsLocation {
    RecId string [note: "Identyfikator rekordu"]

}

Table CustTable {
    AccountNum string [note: "Numer kartoteki klienta"]
    SalesDistrictId string [note: "Grupa klienta np. GRUPA 1, GRUPA 2 itd."]
    Party string [note: "Identyfikator książki adresowej"]
    Currency string [note: "Kod waluty klienta"]
    AngStatus CustStatus [note: "Status klienta"]
    DefaultDimension int [note: "Id domyślnych wymiarów księgowych"]
    MainContactWorker int [note: "Idnetyfikator Pracowniak etatowego odpowiedzialnego"]
    note: "Tabela z danymi klientów"
}

Table CaseDetailBase {
    CaseId string [note: "Numer sprawy"]
    ComplaintNumber string [note: "Numer reklamacji"]
    note: "Sprawy i reklamacje"
}

Table CaseDetail {
    CaseId string [note: "Numer sprawy"]
    note: "Szczegóły sprawy/reklamacji"
}

Table AngCaseDetailComplaint{
    CaseId string [note: "Numer sprawy"]
    AccountNum string [note: "Numer klienta"]
    IndustryCode string [note: "Grupa klienta np. GRUPA 1, GRUPA 2 itd."]
    SalesOrder string [note: "Zamówienie reklamowane"]
    ClosedSalesOrder string [note: "Zamknięto Zamówieniem"]
    note: "Tabela uzupełniająca CaseDetails reklamacji"
}

Table WHSLoadTable{
    LoadId string [note: "Identfikator załadunku (z TMS)"]
    LoadSchedShipUTCDateTime datetime [note: "Data i godzina zaplanowanej wysyłki ładunku"]
    LoadTemplateId LoadTemplateId [note: "Kod Spedytora"]
    note: "Tabela z nagłówkami załadunków"
}

Table WHSLoadLine{
    LoadId string [note: "Identfikator załadunku (z TMS)"]
    OrderNum string [note: "Numer zamówienia sprzedaży"]
    ANGSOLineNumber decimal [note: "Numer wiersza zamówienia"]
    AngPlannedUnloadingDate date [note: "zaplanowana data rozładunku u klienta"]
    InventTransID string [note: "Identyfikator transportu"]
    note: "Tabela z wierszami transportowymi - zamówieniami"
}

Table ProdTable {
    SchedStart datetime [note: "Data produkcji"]
    SchedDate datetime [note: "Planowana data zdania"]
    DlvDate datetime [note: "Data dostępności materiału do produkcji"]
    QtySched decimal [note: "Ilość zaplanowana"]
    ProdId string [note: "Numer zlecenia produkcyjnego"]
    CollectRefProdId string [note: "Numer zlecenia produkcyjnego z którego zostało utworzone"]
    ProdGroupId string [note: "Linia produkcyjna"]
    InventRefId string [note: "Numer odwołania"]
    ProdStatus ProdStatus [note: "Status zlecenia produkcyjnego"]
    BackorderStatus BackorderStatus [note: "Stan pozostałych"]
    ItemId string [note: "Materiał produkowany"]
    DefaultDimension int [note: "Id domyślnych wymiarów księgowych"]
    AngProdTime decimal [note: "Roboczogodziny"]
    note: "Tabela ze zleceniami produkcyjnymi"
}

Table DimensionAttributeValueSet {
    RecId int [note: "Identyfikator rekordu"]
    budzet int [note: "Identyfikator wymiaru budżet"]
    budzetvalue string [note: "Wartość wymiaru budżet"]
    cit int [note: "Identyfikator wymiaru CIT"]
    citvalue string [note: "Wartość wymiaru CIT"]
    dostawca int [note: "Identyfikator wymiaru Dostawca"]
    dostawcavalue string [note: "Wartość wymiaru Dostawca"]
    grupa_towarowa int [note: "Identyfikator wymiaru Grupa Towarowa"]
    grupa_towarowavalue string [note: "Wartość wymiaru Grupa Towarowa"]
    handlowiec int [note: "Identyfikator wymiaru Handlowiec"]
    handlowiecvalue string [note: "Wartość wymiaru Handlowiec"]
    mpk int [note: "Identyfikator wymiaru MPK"]
    mpkvalue string [note: "Wartość wymiaru MPK"]
    odbiorca int [note: "Identyfikator wymiaru Odbiorca"]
    odbiorcavalue string [note: "Wartość wymiaru Odbiorca"]
    produkcja int [note: "Identyfikator wymiaru Produkcja"]
    produkcjavalue string [note: "Wartość wymiaru Produkcja"]
    sekcja int [note: "Identyfikator wymiaru Sekcja"]
    sekcjavalue string [note: "Wartość wymiaru Sekcja"]
    st int [note: "Identyfikator wymiaru ST"]
    stvalue string [note: "Wartość wymiaru ST"]
    zezwolenie_decyzja int [note: "Identyfikator wymiaru Produkcja"]
    zezwolenie_decyzjavalue string [note: "Wartość wymiaru Zezwolenie Decyzja"]
    strefa int [note: "Identyfikator wymiaru Strefa"]
    strefavalue string [note: "Wartość wymiaru Strefa"]
    leasing int [note: "Identyfikator wymiaru Leasing"]
    leasingvalue string [note: "Wartość wymiaru Leasing"]

    note: "Wartości wymiarów"
}

Table HCMWorker {
    RecID int [note: "Identyfikator pracownika"]
    Person int [note: "Idnetyfikator osoby"]
    note: "Tabela z pracownikami firmy"
}

Table ProdJournalProd {
    AngWindowNumber string [note: "Numer pozycji produkowanej (np. kiedy jest 1, u nas będzie 001)"]
    ProdId string [note: "Numer zlecenia produkcyjnego"]
    JournalId string
}

Table ProdJournalTable {
    JournalId string
    PostedDateTime datetime [note: "data skanu na MWG"]
}

Table CustTrans {
    AmountCur string [note: "Nazwa waluty"]
    MCRPaymOrderID string [note: "Numer zamówienia sprzedaży"] 
    Invoice string [note: "Numer faktury"]
}

Table PurchTable {
    PurchId string [note: "Numer zamówienia zakupu"]
    CurrencyCode string [note: "Kod waluty"]
    DeliveryDate date [note: "Żadana data dostawy"]
    OrderAccount string [note: "Konto Dostawcy"]
    "(WIDOK) ExchangeRate" string [note: "Kurs waluty zastosowany do zamówienia"]
    note: "Tabela z nagłówkami zamówień zakupów"
}

Table PurchLine {
    PurchId string [note: "Numer zamówienia zakupu"]
    ItemId string [note: "Numer artykułu"]
    PurchQty decimal [note: "Ilosć zamówionego artykułu"]
    RemainPurchPhysical decimal [note: "ilość pozstała do przyjęcia"]
    PurchPrice decimal [note: "Cena per jednostka"]
    LineAmount decimal [note: "Wartość linii (praktycznie PurchPrice * PurchQty)"]
    "(PBI) PriceNetto" decimal [note: "Cena netto wiersza w walucie"]
    "(PBI) PriceNettoPLN" decimal [note: "Cena netto wiersza w PLN"]
    note: "Tabela z wierszami zamówienia zakupu"
}

Table TaxGroupHeading {
    TaxGroup string [note: "Kod grupy podatkowej"]
    note: "Tabela z grupami podatkowymi"
}

Table ExchangeRateCurrencyPair {
    RECID int [note: "Identyfikator rekordu"]
    FromCurrencyCode string [note: "Waluta źródłowa kursu"]
    ToCurrencyCode string [note: "Waluta docelowa kursu"]
    ExchangeRateType string [note: "Identyfikator typu kursu"]
    note: "Tabela z identyfikatoramui parami zmian walutowych"
}

Table ExchangeRate {
    ExchangeRateCurrencyPair string [note: "Identyfikator tabeli nadrzędnej"]
    ValidFrom datetime [note: "Kurs ważny od"]
    ValidTo datetime [note: "Kurs ważny do"]
    ExchangeRate decimal [note: "Kurs waluty `trzeba podzielić przez 100`"]
    note: "Tabela z kursami przewalutowań"
}

Table AngSalesConfirmations {
    SalesId string [note: "Numer zamówienia którego dotyczą potwierdzenia"]
    SpecialistConfirmation bit [note: "Wartość 0/1, czy specjalista musi potwierdzić"]
    CustomerConfirmation bit [note: "Wartość 0/1, czy klient musi potwierdzić"]
    AdvanceConfirmation bit [note: "Wartość 0/1, czy musi wpłacić zaliczkę"]
    AttendantConfirmation bit [note: "Wartość 0/1, czy opiekun musi potwierdzić"]
    SpecialistConfirmed bit [note: "Wartość 0/1, potwierdzone przez specjalistę/konstruktora?"]
    CustomerConfirmed bit [note: "Wartość 0/1, potwierdzone przez klienta"]
    AdvanceConfirmed bit [note: "Wartość 0/1, czy wpłacona zaliczka"]
    AttendantConfirmed bit [note: "Wartość 0/1, czy potwierdzone przez opiekuna"]
    SpecialistConfirmedUser string [note: "Użytkownik który potwierdził specjalistę"]
    CustomerConfirmedUser string [note: "Użytkownik który potwierdził klienta"]
    AdvanceConfirmedUser string [note: "Użytkownik który potwierdził zaliczkę"]
    AttendantConfirmedUser string [note: "Użytkownik który potwierdził opiekuna"]
    SpecialistConfirmedDateTime datetime [note: "Data i godzina, kiedy zostało potwierdzone przez specjalistę"]
    CustomerConfirmedDateTime datetime [note: "Data i godzina, kiedy zostało potwierdzone przez klienta"]
    AdvanceConfirmedDateTime datetime [note: "Data i godzina, kiedy została potwierdzona płatność zaliczki"]
    AttendantConfirmedDateTime datetime [note: "Data i godzina, kliedy zostało powierdzone przez opiekuna"]
    "(PBI) OrderConfirmedDate" date [note: "Data, kiedy zamówienie spełniło wszystkie warunki podpisania, zostało podpisane"]
    "(PBI) OrderConfirmed" bit [note: "Czy zamówienie zostało podpisane"]
    "(PBI) SpecialistConfirmedDate" date [note: "Data, kiedy zostało potwierdzone przez specjalistę"]
    "(PBI) CustomerConfirmedDate" date [note: "Data, kiedy zostało potwierdzone przez klienta"]
    "(PBI) AdvanceConfirmedDate" date [note: "Data, kiedy została potwierdzona płatność zaliczki"]
    "(PBI) AttendantConfirmedDate" date [note: "Data, kliedy zostało powierdzone przez opiekuna"]
    note: "Tabela z potwierdzeniami do zamówienia"
}

Table LogisticsPostalAddress {
    RECID int [note: "Identyfikator wiersza"]
    Address string [note: "Adres (w jednej linii, z enterami)"]
    CountryRegionId string [note: "Identyfikator kraju (3-znakowy kod kraju)"]
    Location string
    City string [note: "Miasto"]
    Latitude decimal [note: "Szerokość geograficzna"]
    Longitude decimal [note: "Wysokość geograficzna"]
    Street string [note: "Ulica, numer domu itd..."]
    ZipCode string [note: "Kod pocztowy"]
    IsPrimary string [note: "Determines if address if primary"]
    AngLogMin decimal [note: "Wartość minimum logistycznego"]
    AngDeliveryCost decimal [note: "Koszt dostawy"]
    note: "Tabela z adresami logistycznymi"
}

Table LogisticsElectronicAddress{
    RecID int [note: "Identyfikator adresu elektronicznego"]
    locator string [note: "adres email/telefon kontaktowy"]
    type LogisticsElectronicAddressType [note: "Typ adresu"]
    note: "Tabela z danymi kontaktowymi"
}

Table VendTable{
    AccountNum string [note: "Numer kartoteki"]
    Party string [note: "Identyfikator książki adresowej"]

    note: "Kartoteka dostawców"
}

Table InventTable {
    ItemId string [note: "Kod produktu"]
    Product string [note: "Identyfikator produktu"]
    note: "Tabela z prodektami (Kartoteka zapasów)"
}

Table BOMTable {
    BOMId string [note: "Identyfikator BOM'u"]
    Name string [note: "Nazwa BOM'u"]
    note: "Tabela zawierająca nagłówki BOM'ów"
}

Table BOMVersion {
    BOMId string [note: "Identyfikator BOM'u"]
    Active bit [note: "Czy ta wersja BOM jest aktywna"]
    Approved bit [note: "Czy ta wersja BOM jest zatwierdzony"]
    ItemId string [note: "Identyfikator produktu"]
    Name string [note: "Nazwa wersji"]
    UnitId string [note: "Jednostka produktu"]

    note: "Tabela z wersjami BOM'u"
}

Table BOM {
    BOMId string [note: "Identyfikator BOM'u"]
    ItemId string [note: "Identyfikator materiału"]
    BOMQty decimal [note: "Ilosć Materiału w serii"]
    BOMQtySerie decimal [note: "Ilość w serii"]
    FromDate date [note: "Data od kiedy BOM jest aktywny"]
    ToDate date [note: "Data do kiedy BOM jest aktywny"]
    UnitId string [note: "Jednostka materiału"]
    LineNum int [note: "Numer wiersza"]
    note: "Tabela zawierająca wiersze/materiały BOM'ów"
}

Table EcoResProduct {
    RecId int [note: "Identyfikator rekordu"]
    EngChgProductCategoryDetails string
    note: "Tabela z grupami creatora"
}

Table EngChgProductCategoryDetails {
    RecId int [note: "Identyfikator rekordu"]
    Category string 
}

Table EcoResCategory {
    RecId int [note: "Identyfikator rekordu"]
    Name string [note: "Grupa kreatora"]
}

Table InventTransferTable {
    TransferId string [note: "Identyfikator zamówienia przeniesienia"]
    InventLocationIdFrom string [note: "Magazyn źródłowy"]
    InventLocationIdTo string [note: "Magazyn docelowy"]
    ShipDate datetime [note: "Data wysyłki"]
    ReceiveDate datetime [note: "Data przyjęcia"]
    TransferStatus TransferStatus [note: "Stan przeniesienia"]
    AngSupplement bit [note: "Czy to jest dobranie"]
    note: "Tabela z nagłówkami zamówień przeniesienia"
}

Table InventTransferLine {
    TransferId string [note: "Identyfikator zamówienia przeniesienia"]
    ShipDate datetime [note: "Data wysyłki"]
    ReceiveDate datetime [note: "Data przyjęcia"]
    ItemId string [note: "Kod materiału"]
    QtyTransfer decimal [note: "Ilość do przeniesienia"]
    QtyShipped decimal [note: "Ilość wysłana"]
    QtyRemainShip decimal [note: "Ilość pozostała do wysłania"]
    QtyReceived decimal [note: "Ilość przyjęta"]
    note: "Tabela z wierszami zamówień przeniesienia"
}

Table AngRelatedOrders {
    RelatedOrdersId string [note: "Identyfikator danego kompletu. Wszystkie inne zamówienia sprzedaży z takim samym identyfikatorem będą powiązane"]
    SalesId string [note: "Numer powiązanego zamówienia sprzedaży"]
    note: "Tabela z kompletami (powiązanymi zamówieniami sprzedaży)"
}

Table EcoResProductTranslation {
    Product string [note: "Identyfikator produktu"]
    LanguageID string [note: "2-znakowy kod języka (pl,en itd...)"]
    Description string [note: "Opis tłumaczenia"]
    Name string [note: "Tłumaczenie produktu"]
    note: "Tabela z tłumaczeniami do produktów"
}



Table CustInvoiceJour {
    RecId int [note: "Identyfikator rekordu"]
    InvoiceId string [note: "Numer faktury"]
    InvoiceAccount string [note: "Numer klienta"]
    SalesId string [note: "Numer zamówienia"]
    InvoiceAmount decimal [note: "Kwota faktury"]
    InvoiceDate date [note: "Data faktury (nie jest dokładnie opisane)"]
    DocumentDate date [note: "Data dokumentu"]
    DueDate date [note: "Data płatności"]
    
    note: "Tabela z fakturami klientów"
}

Table CustInvoiceJour_W {
    CustInvoiceJour int [note: "Identyfikator powiązanej faktury"]
    SalesDate_W date [note: "Data sprzedaży faktury"]

    note: "Tabela z dodatkowymi polami do faktur???"
}


Ref: "CustInvoiceJour"."RecId" - "CustInvoiceJour_W"."CustInvoiceJour"
Ref: "SalesTable"."SalesId" < "SalesLine"."SalesId"
Ref: "SalesTable"."SalesId" - "AngSalesConfirmations"."SalesId"
Ref: "SalesTable"."DeliveryPostalAddress" < "LogisticsPostalAddress"."RECID"
Ref: "SalesLine"."inventDimId" < "InventDim"."inventDimId"  
Ref: "EcoResConfiguration"."Name" < "InventDim"."configId"  
Ref: "SalesTable"."WorkerSalesResponsible" < "HCMWorker"."RecID"  
Ref: "SalesTable"."CustAccount" < "CustTable"."AccountNum"  
Ref: "CaseDetailBase"."CaseId" < "CaseDetail"."CaseId"
Ref: "AngCaseDetailComplaint"."CaseId" < "CaseDetail"."CaseId"
Ref: "AngCaseDetailComplaint"."SalesOrder" < "SalesTable"."SalesId"
Ref: "AngCaseDetailComplaint"."ClosedSalesOrder" < "SalesTable"."SalesId"
Ref: "WHSLoadTable"."LoadId" < "WHSLoadLine"."LoadId" 
Ref: "SalesLine"."SalesId" - "WHSLoadLine"."OrderNum"
Ref: "SalesLine"."LineNum" - "WHSLoadLine"."ANGSOLineNumber"
Ref: "WHSLoadLine"."InventTransID" - "SalesLine"."InventTransID"
Ref: "ProdTable"."ProdId" < "ProdJournalProd"."ProdId"
Ref: "EcoResConfiguration"."Name" < "ProdTable"."ProdId"  
Ref: "ProdJournalTable"."JournalId" < "ProdJournalProd"."JournalId"
Ref: "SalesTable"."SalesId" < "CustTrans"."MCRPaymOrderID"
Ref: "PurchTable"."PurchId" < "PurchLine"."PurchId"
Ref: "SalesTable"."TaxGroup" < "TaxGroupHeading"."TaxGroup"
Ref: "ExchangeRateCurrencyPair"."RECID" < "ExchangeRate"."ExchangeRateCurrencyPair"
Ref: "InventDim"."configId" < "ProdTable"."ProdId"
Ref: "ProdTable"."DefaultDimension" - "DimensionAttributeValueSet"."RecId"
Ref: "CustTable"."DefaultDimension" - "DimensionAttributeValueSet"."RecId"
Ref: "SalesTable"."DefaultDimension" - "DimensionAttributeValueSet"."RecId"
Ref: "ProdTable"."ItemId" - "InventTable"."ItemId"
Ref: "BOMTable"."BOMId" < "BOM"."BOMId"
Ref: "BOMTable"."BOMId" < "BOMVersion"."BOMId"
Ref: "BOMVersion"."BOMId" < "BOM"."BOMId"
Ref: "BOMVersion"."ItemId" > "InventTable"."ItemId"
Ref: "BOM"."ItemId" > "InventTable"."ItemId"
Ref: "HCMWorker"."RecID" - "CustTable"."MainContactWorker"
Ref: "HCMWorker"."Person" - "DirPartyTable"."RecId"
Ref: "VendTable"."Party" - "DirPartyTable"."RecId"
Ref: "InventTransferTable"."TransferId" < "InventTransferLine"."TransferId"
Ref: "EcoResProduct"."RecId" - "InventTable"."Product"
Ref: "EcoResProduct"."EngChgProductCategoryDetails" - "EngChgProductCategoryDetails"."RecId"
Ref: "EcoResCategory"."RecId" - "EngChgProductCategoryDetails"."Category"
Ref: "CustTable"."Party" - "DirPartyTable"."RecId"
Ref: "DirPartyTable"."PrimaryContactEmail" - "LogisticsElectronicAddress"."RecID"
Ref: "SalesTable"."SalesId" - "AngRelatedOrders"."SalesId"
Ref: "InventItemPurchSetup"."ItemId" - "InventTable"."ItemId"
Ref: "EcoResProductTranslation"."Product" > "InventTable"."Product"
Ref: "SalesTable"."SalesId" < "CustInvoiceJour"."SalesId"
Ref: "CustTable"."AccountNum" < "CustInvoiceJour"."InvoiceAccount"
Ref: "DirPartyLocation"."Party" - "DirPartyTable"."RecId"
Ref: "LogisticsLocation"."RecId" - "DirPartyLocation"."Location"
Ref: "DirPartyLocation"."RecId" - "LogisticsPostalAddress"."Location"
Ref: "InventTrans"."InventTransOrigin" - "InventTransOrigin"."RecId"



enum ITStatusReceipt {
    "0 - "
    "1 - Zakupione"
    "2 - Otrzymane"
    "3 - Zarejestrowane"
    "4 - Dostarczone"
    "5 - Zamówione"
    "6 - Otrzymanie oferty"
}

enum ITStatusIssue {
    "0 - "
    "1 - Sprzedane"
    "2 - Wydane"
    "3 - Pobrane"
    "4 - Fizycznie zarezerwowane"
    "5 - Zamówione zarezerwowane"
    "6 - Zamówione"
    "7 - Oferta rozchodu"
}

enum ReferenceCategory {
    "0 - Zamówienie sprzedaży"
    "1 - Produkcja"
    "3 - Zamówienie zakupu"
    "4 - Transakcja"
    "5 - Korekta zapasów"
    "6 - Przeniesienie"
    "7 - Średnia ważona zamknięcia magazynu"
    "8 - Wiersz produkcji"
    "9 - Wiersz BOM"
    "10 - BOM"
    "11 - Zamówienie wyjścia"
    "13 - Projekt"
    "14 - Inwentaryzacja"
    "15 - Transport palet"
    "16 - Zlecenie kwarantanny"
    "17 - Środki trwałe"
    "18 - Wysyłka zamówienia przeniesienia"
    "19 - Przyjęcie zamówienia przeniesienia"
    "20 - Odpadki zamówienia przeniesienia"
    "21 - Oferta"
    "23 - Zlecenie kontroli jakości"
    "24 - Blokowanie zapasów"
    "25 - Zadanie w systemie Kanban"
    "26 - Przyjęcie przeniesienia w systemie Kanban"
    "27 - Wydanie przeniesienia zadania w systemie Kanban"
    "28 - Zużycie w ramach zadania w systemie Kanban"
    "29 - Zadanie w toku w systemie Kanban"
    "30 - Pusta karta Kanban"
    "31 - Wytwarzanie produktu towarzyszącego"
    "33 - Produkt uboczny"
    "34 - Środki trwałe"
    "35 - Zestawienie"
    "36 - Components"
    "37 - Praca"
    "38 - Zmiana stanu zapasów"
    "39 - Kontener"
    "40 - Zamówienie uzupełnienia zapasów konsygnacyjnych"
    "41 - Zmiana własności"
}

enum TransferStatus {
    "0 - Utworzone"
    "1 - Wysłano"
    "2 - Otrzymane"
}

enum CustStatus {
    "0 - Prospekt"
    "1 - Nowy"
    "2 - Aktywny"
    "3 - Nieaktywny"
    "4 - Nie istnieje"
    "5 - Windykacja"
    "6 - Brak kontaktu"
    "7 - Sąd"
    "8 - Zablokowany"
}

enum SalesStatus {
    "0 - Brak"
    "1 - Otwarte"
    "2 - Dostarczone"
    "3 - Zafakturowane"
    "4 - Anuloowane"
    // 1 [note: "Otwarte"]
    // 2 [note: "Dostarczone"]
    // 3 [note: "Zafakturowane"]
    // 4 [note: "Anuloowane"]
}

enum ReqPoType {
    "0 - Zakup"
    "1 - Produkcja"
    "2 - Przeniesienie"
}

enum LoadTemplateId {
    "AWG"
    "PLANOWANIE"
    "STD"
    "{NUMER SPEDYCJI NP. D03233}"
}

enum AngSalesOrderStatus {
    "0 - Przyjęte"
    "1 - Zarejestrowane"
    "2 - Korekta"
    "3 - Przekazane do wyjaśnienia"
    "4 - Dorabiana technologia"
    "5 - Wstrzymane przez klienta"
    "6 - Niespełnione minimum logistyczne"
    "7 - Wstrzymane przez Dział Windykacji"
    "8 - Przekracza limit"
    "9 - Niekompletne"
}

enum SalesType {
    "0 - Arkusz"
    "1 - Subskrypcja"
    "2 - Zamówienie Sprzedaży"
    "3 - Zwrot towaru"
    "4 - Zapotrzebowanie na pozycje"
}

enum ProdStatus {
    "0 - Utworzone"
    "1 - Oszacowane"
    "2 - Zaplanowane"
    "3 - Zwolnione"
    "4 - Rozpoczęte"
}

enum BackorderStatus {
    "0 - (Puste)"
    "1 - Zużycie materiału"
    "2 - (nieznane)"
    "3 - Zgłoszenie MWG"
    "4 - (nieznane)"
    "5 - Zakończone"
}

enum LogisticsElectronicAddress {
    "1 - Telefon kontaktowy"
    "2 - Adres Email"
    "9 - Telefon kontaktowy"
}